<svg xmlns="http://www.w3.org/2000/svg" xmlns:xlink="http://www.w3.org/1999/xlink" width="80" zoomAndPan="magnify" viewBox="0 0 60 30.000001" height="40" preserveAspectRatio="xMidYMid meet" version="1.0"><defs><g/></defs><g fill="#ffffff" fill-opacity="1"><g transform="translate(1.046933, 22.898312)"><g><path d="M 2.484375 0 C 2.328125 0 2.191406 -0.0546875 2.078125 -0.171875 C 1.960938 -0.285156 1.90625 -0.425781 1.90625 -0.59375 L 1.90625 -16.515625 C 1.90625 -16.691406 1.960938 -16.832031 2.078125 -16.9375 C 2.191406 -17.039062 2.328125 -17.09375 2.484375 -17.09375 L 4.828125 -17.09375 C 5.015625 -17.09375 5.160156 -17.039062 5.265625 -16.9375 C 5.367188 -16.832031 5.421875 -16.691406 5.421875 -16.515625 L 5.421875 -0.59375 C 5.421875 -0.425781 5.367188 -0.285156 5.265625 -0.171875 C 5.160156 -0.0546875 5.015625 0 4.828125 0 Z M 2.484375 0 "/></g></g></g><g fill="#ffffff" fill-opacity="1"><g transform="translate(8.375238, 22.898312)"><g><path d="M 6.453125 0.25 C 5.210938 0.25 4.175781 0.0625 3.34375 -0.3125 C 2.507812 -0.6875 1.894531 -1.125 1.5 -1.625 C 1.101562 -2.125 0.90625 -2.550781 0.90625 -2.90625 C 0.90625 -3.070312 0.957031 -3.203125 1.0625 -3.296875 C 1.164062 -3.390625 1.289062 -3.4375 1.4375 -3.4375 L 3.4375 -3.4375 C 3.570312 -3.4375 3.6875 -3.375 3.78125 -3.25 C 3.863281 -3.1875 4.046875 -3.03125 4.328125 -2.78125 C 4.617188 -2.539062 4.945312 -2.347656 5.3125 -2.203125 C 5.675781 -2.066406 6.078125 -2 6.515625 -2 C 7.171875 -2 7.703125 -2.125 8.109375 -2.375 C 8.515625 -2.632812 8.71875 -3 8.71875 -3.46875 C 8.71875 -3.789062 8.625 -4.050781 8.4375 -4.25 C 8.25 -4.457031 7.914062 -4.644531 7.4375 -4.8125 C 6.957031 -4.988281 6.238281 -5.179688 5.28125 -5.390625 C 3.894531 -5.691406 2.867188 -6.140625 2.203125 -6.734375 C 1.546875 -7.335938 1.21875 -8.140625 1.21875 -9.140625 C 1.21875 -9.785156 1.410156 -10.394531 1.796875 -10.96875 C 2.191406 -11.550781 2.773438 -12.023438 3.546875 -12.390625 C 4.328125 -12.753906 5.253906 -12.9375 6.328125 -12.9375 C 7.429688 -12.9375 8.378906 -12.757812 9.171875 -12.40625 C 9.972656 -12.0625 10.582031 -11.644531 11 -11.15625 C 11.414062 -10.664062 11.625 -10.234375 11.625 -9.859375 C 11.625 -9.710938 11.570312 -9.585938 11.46875 -9.484375 C 11.363281 -9.378906 11.238281 -9.328125 11.09375 -9.328125 L 9.25 -9.328125 C 9.070312 -9.328125 8.9375 -9.394531 8.84375 -9.53125 C 8.726562 -9.601562 8.539062 -9.75 8.28125 -9.96875 C 8.03125 -10.195312 7.75 -10.375 7.4375 -10.5 C 7.132812 -10.632812 6.765625 -10.703125 6.328125 -10.703125 C 5.722656 -10.703125 5.253906 -10.570312 4.921875 -10.3125 C 4.597656 -10.050781 4.4375 -9.707031 4.4375 -9.28125 C 4.4375 -8.988281 4.515625 -8.742188 4.671875 -8.546875 C 4.828125 -8.347656 5.140625 -8.160156 5.609375 -7.984375 C 6.085938 -7.816406 6.796875 -7.644531 7.734375 -7.46875 C 10.671875 -6.90625 12.140625 -5.628906 12.140625 -3.640625 C 12.140625 -2.484375 11.640625 -1.546875 10.640625 -0.828125 C 9.640625 -0.109375 8.242188 0.25 6.453125 0.25 Z M 6.453125 0.25 "/></g></g></g><g fill="#ffffff" fill-opacity="1"><g transform="translate(21.395197, 22.898312)"><g><path d="M 2.21875 0 C 2.0625 0 1.925781 -0.0546875 1.8125 -0.171875 C 1.695312 -0.285156 1.640625 -0.425781 1.640625 -0.59375 L 1.640625 -16.75 C 1.640625 -16.925781 1.695312 -17.066406 1.8125 -17.171875 C 1.925781 -17.285156 2.0625 -17.34375 2.21875 -17.34375 L 4.4375 -17.34375 C 4.625 -17.34375 4.769531 -17.285156 4.875 -17.171875 C 4.976562 -17.066406 5.03125 -16.925781 5.03125 -16.75 L 5.03125 -11.1875 C 6.007812 -12.351562 7.320312 -12.9375 8.96875 -12.9375 C 10.457031 -12.9375 11.648438 -12.441406 12.546875 -11.453125 C 13.441406 -10.472656 13.890625 -9.140625 13.890625 -7.453125 L 13.890625 -0.59375 C 13.890625 -0.425781 13.835938 -0.285156 13.734375 -0.171875 C 13.628906 -0.0546875 13.488281 0 13.3125 0 L 11.09375 0 C 10.90625 0 10.753906 -0.0546875 10.640625 -0.171875 C 10.535156 -0.285156 10.484375 -0.425781 10.484375 -0.59375 L 10.484375 -7.296875 C 10.484375 -8.242188 10.25 -8.984375 9.78125 -9.515625 C 9.3125 -10.046875 8.648438 -10.3125 7.796875 -10.3125 C 6.960938 -10.3125 6.289062 -10.039062 5.78125 -9.5 C 5.28125 -8.957031 5.03125 -8.222656 5.03125 -7.296875 L 5.03125 -0.59375 C 5.03125 -0.425781 4.976562 -0.285156 4.875 -0.171875 C 4.769531 -0.0546875 4.625 0 4.4375 0 Z M 2.21875 0 "/></g></g></g><g fill="#ffffff" fill-opacity="1"><g transform="translate(36.784644, 22.898312)"><g><path d="M 6.328125 0.25 C 4.828125 0.25 3.644531 -0.238281 2.78125 -1.21875 C 1.914062 -2.195312 1.484375 -3.539062 1.484375 -5.25 L 1.484375 -12.109375 C 1.484375 -12.285156 1.539062 -12.425781 1.65625 -12.53125 C 1.769531 -12.644531 1.910156 -12.703125 2.078125 -12.703125 L 4.28125 -12.703125 C 4.4375 -12.703125 4.570312 -12.644531 4.6875 -12.53125 C 4.800781 -12.414062 4.859375 -12.273438 4.859375 -12.109375 L 4.859375 -5.390625 C 4.859375 -3.390625 5.726562 -2.390625 7.46875 -2.390625 C 8.320312 -2.390625 8.992188 -2.65625 9.484375 -3.1875 C 9.984375 -3.726562 10.234375 -4.460938 10.234375 -5.390625 L 10.234375 -12.109375 C 10.234375 -12.285156 10.289062 -12.425781 10.40625 -12.53125 C 10.519531 -12.644531 10.65625 -12.703125 10.8125 -12.703125 L 13 -12.703125 C 13.175781 -12.703125 13.316406 -12.644531 13.421875 -12.53125 C 13.523438 -12.425781 13.578125 -12.285156 13.578125 -12.109375 L 13.578125 -0.59375 C 13.578125 -0.425781 13.523438 -0.285156 13.421875 -0.171875 C 13.316406 -0.0546875 13.175781 0 13 0 L 10.96875 0 C 10.800781 0 10.660156 -0.0546875 10.546875 -0.171875 C 10.429688 -0.285156 10.375 -0.425781 10.375 -0.59375 L 10.375 -1.59375 C 9.476562 -0.363281 8.128906 0.25 6.328125 0.25 Z M 6.328125 0.25 "/></g></g></g><g fill="#ff3131" fill-opacity="1"><g transform="translate(52.174165, 23.67805)"><g><path d="M 3.359375 0.109375 C 2.941406 0.109375 2.570312 0.0234375 2.25 -0.140625 C 1.925781 -0.316406 1.675781 -0.554688 1.5 -0.859375 C 1.332031 -1.160156 1.25 -1.503906 1.25 -1.890625 C 1.25 -2.265625 1.332031 -2.601562 1.5 -2.90625 C 1.675781 -3.207031 1.925781 -3.445312 2.25 -3.625 C 2.570312 -3.800781 2.941406 -3.890625 3.359375 -3.890625 C 3.785156 -3.890625 4.160156 -3.800781 4.484375 -3.625 C 4.804688 -3.457031 5.050781 -3.222656 5.21875 -2.921875 C 5.394531 -2.617188 5.484375 -2.273438 5.484375 -1.890625 C 5.484375 -1.316406 5.289062 -0.835938 4.90625 -0.453125 C 4.519531 -0.078125 4.003906 0.109375 3.359375 0.109375 Z M 3.359375 0.109375 "/></g></g></g></svg>